# xmcd
#
# Track frame offsets:
#	150
#	21898
#	35830
#	50660
#	70240
#	90600
#	110673
#	128215
#	149785
#	167015
#
# Disc length: 2473 seconds
#
# Revision: 1
# Processed by: cddbd v1.5.2PL0 Copyright (c) Steve Scherf et al.
# Submitted via: EZCDAudioConverter 8.0.2.1
#
DISCID=9709a70a
DTITLE=CHITÃOZINHO and XORORÓ - NACIMOS PRA CANTAR [CD 510 062-2) POLYGRAM
DYEAR=1991
DGENRE=Sertaneja
TTITLE0=SOMOS ASI (SOMOS ASSIM) (BY GILMAR SINISTRO)
TTITLE1=NACIMOS PRA CANTAR (SHAMBALA) (BY GILMAR SINISTRO)
TTITLE2=PELEAS (BRIGAS) (BY GILMAR SINISTRO)
TTITLE3=TIERRA AMANTE (TERRA AMANTE) (BY GILMAR SINISTRO)
TTITLE4=RECOMENZAR (RECOMEÇAR) (BY GILMAR SINISTRO)
TTITLE5=SUFRO  YO (PÁGINA VIRADA) (BY GILMAR SINISTRO)
TTITLE6=AMOR EM COMUN (AMOR INCOMUM) (BY GILMAR SINISTRO)
TTITLE7=LOS NIÑOS DE LA CALLE (OS MENINOS DO BRASIL) (BY GILMAR SINISTRO)
TTITLE8=EL RIO ( O RIO ) (BY GILMAR SINISTRO)
TTITLE9=COISAS DE LA VIDA (SÃO COISAS DA VIDA) (BY GILMAR SINISTRO)
EXTD=
EXTT0=
EXTT1=
EXTT2=
EXTT3=
EXTT4=
EXTT5=
EXTT6=
EXTT7=
EXTT8=
EXTT9=
PLAYORDER=
